<?xml version="1.0" encoding="utf-8"?>
<!-- Generator: Adobe Illustrator 24.1.1, SVG Export Plug-In . SVG Version: 6.00 Build 0)  -->
<svg version="1.1" id="レイヤー_1" xmlns="http://www.w3.org/2000/svg" xmlns:xlink="http://www.w3.org/1999/xlink" x="0px"
	 y="0px" viewBox="0 0 89.09 30" style="enable-background:new 0 0 89.09 30;" xml:space="preserve">
<style type="text/css">
	.st0{fill:#424242;}
	.st1{fill:#1C8DF0;}
</style>
<path id="te" class="st0" d="M80.29,22.2c2.1,0,4.1-0.1,5.9-0.2v0.7c-0.8,0-1.5,0.2-1.9,0.4c-0.4,0.2-0.8,0.5-1.1,0.8
	c-0.3,0.4-0.5,0.9-0.5,1.3c0,0.5,0.2,0.9,0.5,1.1c0.4,0.3,1,0.5,1.8,0.6l-0.2,0.8c-1.1-0.1-1.8-0.4-2.2-0.8c-0.5-0.4-0.7-1-0.7-1.6
	s0.2-1.1,0.6-1.6c0.3-0.4,0.7-0.7,1.3-0.9c-0.9,0-2.2,0.1-3.6,0.2L80.29,22.2z"/>
<path id="re" class="st0" d="M65.69,21.5h0.8v1.9c0.5-0.6,1-0.9,1.3-1.2c0.3-0.2,0.6-0.3,0.9-0.3s0.6,0.1,0.8,0.3
	c0.3,0.2,0.4,0.6,0.4,1c0,0.1,0,0.2,0,0.4c-0.2,1.3-0.3,2.2-0.3,2.6c0,0.2,0.1,0.3,0.2,0.3s0.2,0,0.3-0.1c0.2-0.2,0.5-0.4,0.7-0.8
	l0.3,0.8c-0.1,0.2-0.3,0.4-0.5,0.6c-0.3,0.2-0.5,0.3-0.8,0.3s-0.5-0.1-0.6-0.3c-0.1-0.2-0.2-0.4-0.2-0.8c0-0.3,0-0.7,0.1-1.3
	c0.1-0.7,0.2-1.3,0.2-1.6c0-0.1,0-0.1,0-0.1c0-0.2,0-0.4-0.1-0.5s-0.2-0.2-0.3-0.2c-0.5,0-1.2,0.6-2.2,1.9v3.2h-0.8v-2.4
	c-0.4,0.5-0.7,1-1.1,1.5l-0.5-0.6c0.5-0.7,1-1.3,1.4-1.9v-0.9h-1.2v-0.7h1.2V21.5L65.69,21.5z"/>
<path id="hana" class="st0" d="M50.69,21.9h1.4v0.6h-3.5v-0.6h1.4v-0.6h0.7V21.9z M50.69,26.4L50.69,26.4c-0.1-0.2-0.1-0.3-0.2-0.4
	l0.4-0.2c0.2,0.4,0.4,0.7,0.5,1.1l-0.4,0.3c0-0.1,0-0.2-0.1-0.3c-0.3,0.1-0.8,0.2-1.4,0.2l-0.2-0.6c0.1,0,0.1,0,0.2,0h0.1
	c0.1-0.3,0.1-0.6,0.2-0.8h-0.5V28h-0.6v-2.9h1.3c0-0.1,0-0.2,0.1-0.4h-1.2v-2h0.6v1.5h1.8v-1.5h0.6v1.2c0.4-0.7,0.6-1.6,0.8-2.6
	l0.7,0.2c-0.1,0.4-0.2,0.8-0.3,1.1h0.6c0.1-0.4,0.2-0.8,0.3-1.2l0.7,0.1c-0.1,0.4-0.2,0.7-0.4,1h0.9v0.6h-1v0.8h0.9v0.6h-0.9v0.8
	h0.9v0.6h-0.9V27h1.1v0.6h-2.3V28h-0.6v-3.8c-0.1,0.2-0.2,0.3-0.3,0.5l-0.3-0.5v0.4h-1.2c0,0.1,0,0.3-0.1,0.4h1.5v2.4
	c0,0.2,0,0.3-0.1,0.4s-0.2,0.1-0.4,0.1c-0.2,0-0.4,0-0.8-0.1l-0.1-0.6c0.3,0,0.5,0.1,0.7,0.1c0.1,0,0.1,0,0.1,0v-0.1v-1.6h-1
	c0,0.2-0.1,0.5-0.2,0.8C50.29,26.4,50.49,26.4,50.69,26.4z M49.99,23.3c-0.2-0.1-0.3-0.2-0.5-0.3l0.3-0.4c0.2,0.1,0.4,0.3,0.5,0.3
	c0.1-0.1,0.2-0.3,0.3-0.4l0.5,0.3c-0.1,0.2-0.3,0.3-0.4,0.5c0.2,0.1,0.3,0.3,0.5,0.4l-0.3,0.4c-0.2-0.2-0.3-0.3-0.5-0.4
	c-0.1,0.1-0.3,0.3-0.5,0.5l-0.4-0.4C49.69,23.6,49.79,23.5,49.99,23.3z M53.59,23.2h-0.6V24h0.6V23.2z M53.59,24.6h-0.6v0.8h0.6
	V24.6z M53.59,26.1h-0.6V27h0.6V26.1z"/>
<path id="ha" class="st0" d="M33.39,27.7c-0.1-0.7-0.1-1.5-0.1-2.4c0-1.3,0.1-2.5,0.3-3.7l0.8,0.1c-0.2,1-0.3,2.1-0.3,3.3
	c0,0.9,0,1.7,0.1,2.6L33.39,27.7z M37.09,21.6h0.7v1.2h1.5v0.7h-1.4v2.1c0.5,0.2,1.1,0.6,1.6,1l-0.4,0.7c-0.4-0.4-0.9-0.7-1.2-0.9
	c0,0.6-0.2,0.9-0.6,1.1c-0.2,0.1-0.5,0.2-0.8,0.2c-0.4,0-0.7-0.1-1-0.2c-0.4-0.2-0.6-0.5-0.6-1c0-0.4,0.2-0.7,0.5-0.9
	c0.3-0.2,0.7-0.3,1.1-0.3c0.2,0,0.4,0,0.7,0.1v-1.9h-2.2v-0.7h2.2L37.09,21.6L37.09,21.6z M37.09,26.1c-0.3-0.1-0.5-0.1-0.7-0.1
	s-0.4,0-0.5,0.1c-0.2,0.1-0.3,0.2-0.3,0.5c0,0.2,0.1,0.3,0.2,0.4c0.2,0.1,0.4,0.1,0.6,0.1c0.5,0,0.7-0.3,0.7-0.8
	C37.09,26.3,37.09,26.1,37.09,26.1z"/>
<path id="ma" class="st0" d="M20.29,21.5h0.8v0.9h2.2V23h-2.2v0.8h2v0.6h-2v1.1c0.8,0.3,1.6,0.7,2.4,1.2l-0.4,0.6
	c-0.6-0.4-1.3-0.8-2-1.2c0,0.4-0.1,0.7-0.2,0.9c-0.2,0.4-0.7,0.6-1.4,0.6c-0.5,0-0.9-0.1-1.3-0.3c-0.4-0.2-0.5-0.5-0.5-0.9
	s0.2-0.8,0.7-1c0.3-0.1,0.7-0.2,1.2-0.2c0.2,0,0.4,0,0.7,0v-0.9h-2.4v-0.6h2.4V23h-2.6v-0.6h2.6V21.5L20.29,21.5z M20.29,26
	c-0.3-0.1-0.5-0.1-0.8-0.1s-0.5,0-0.7,0.1s-0.3,0.3-0.3,0.5s0.1,0.3,0.3,0.4s0.4,0.2,0.7,0.2c0.4,0,0.6-0.1,0.7-0.3
	c0.1-0.1,0.2-0.4,0.2-0.7L20.29,26L20.29,26z"/>
<path id="i-3" class="st0" d="M4.89,25.8c-0.4,1.2-0.9,1.9-1.4,1.9c-0.4,0-0.7-0.3-1-0.8c-0.2-0.4-0.3-0.9-0.4-1.3
	c-0.1-0.6-0.1-1.4-0.1-2.3c0-0.4,0-0.8,0-1.3l0.8,0.1c0,0.5,0,0.9,0,1.3c0,1.5,0.1,2.5,0.4,3.1c0.1,0.2,0.2,0.4,0.3,0.4
	s0.1-0.1,0.2-0.2c0.2-0.3,0.4-0.7,0.6-1.2L4.89,25.8z M7.09,26.7c-0.1-1-0.3-1.7-0.4-2.3c-0.2-0.7-0.4-1.4-0.7-2l0.7-0.2
	c0.4,0.7,0.7,1.5,0.8,2.2c0.2,0.6,0.3,1.3,0.4,2.1L7.09,26.7z"/>
<path id="o-3" class="st1" d="M86.09,14.6c-0.2,0-0.4,0.2-0.5,0.4h-0.5c0-0.4-0.2-0.8-0.5-1.1l0.3-0.4c0.2,0.1,0.5,0.1,0.6-0.1
	c0.2-0.2,0.2-0.5,0.1-0.7s-0.5-0.2-0.7-0.1c0,0,0,0-0.1,0.1c-0.2,0.2-0.2,0.4-0.1,0.6l-0.4,0.3c-0.3-0.3-0.7-0.4-1.1-0.5v-0.5
	c0.3-0.1,0.4-0.4,0.4-0.6s-0.4-0.4-0.6-0.4s-0.4,0.4-0.4,0.6c0,0.2,0.2,0.3,0.4,0.4v0.5c-0.4,0-0.8,0.2-1.1,0.5l-0.4-0.3
	c0.1-0.2,0.1-0.5-0.1-0.6c-0.2-0.2-0.6-0.1-0.7,0.1c-0.1,0.2-0.1,0.4,0,0.6c0.2,0.2,0.4,0.2,0.6,0.1l0.3,0.4
	c-0.3,0.3-0.4,0.7-0.5,1.1h-0.5c-0.1-0.3-0.4-0.4-0.6-0.4s-0.4,0.4-0.4,0.6s0.4,0.4,0.6,0.4s0.3-0.2,0.4-0.4h0.5
	c0,0.4,0.2,0.8,0.5,1.1l-0.3,0.4c-0.2-0.1-0.5-0.1-0.6,0.1c-0.2,0.2-0.2,0.5,0.1,0.7c0.2,0.2,0.5,0.2,0.7,0s0.2-0.4,0.1-0.6l0.4-0.4
	c0.3,0.3,0.7,0.4,1.1,0.5v0.5c-0.3,0.1-0.4,0.4-0.4,0.6c0.1,0.3,0.4,0.4,0.6,0.4c0.3-0.1,0.4-0.4,0.4-0.6s-0.2-0.3-0.4-0.4V17
	c0.4,0,0.8-0.2,1.1-0.5l0.4,0.3c-0.1,0.2-0.1,0.5,0.1,0.6c0.2,0.2,0.5,0.2,0.7-0.1c0.2-0.2,0.2-0.5,0-0.7s-0.4-0.2-0.6-0.1l-0.4-0.4
	c0.3-0.3,0.4-0.7,0.5-1.1h0.5c0.1,0.3,0.4,0.4,0.6,0.4c0.3-0.1,0.4-0.4,0.4-0.6C86.49,14.7,86.29,14.6,86.09,14.6L86.09,14.6
	L86.09,14.6z M81.49,15.3c0-0.1,0.1-0.1,0.2-0.1s0.2,0.1,0.2,0.1s-0.1,0.1-0.2,0.1S81.49,15.4,81.49,15.3z M82.49,16.3
	c-0.1,0-0.2-0.1-0.2-0.1s0.1-0.1,0.2-0.1s0.2,0.1,0.2,0.1S82.59,16.3,82.49,16.3z M82.49,15.6c-0.2,0-0.3-0.1-0.3-0.3
	s0.1-0.3,0.3-0.3s0.3,0.1,0.3,0.3S82.69,15.6,82.49,15.6z M83.69,16.3c-0.1,0-0.2-0.1-0.2-0.1s0.1-0.1,0.2-0.1s0.2,0.1,0.2,0.1
	S83.79,16.3,83.69,16.3z M83.69,15.6c-0.2,0-0.3-0.1-0.3-0.3s0.1-0.3,0.3-0.3s0.3,0.1,0.3,0.3S83.89,15.6,83.69,15.6z M83.69,14.4
	c-0.2,0-0.3-0.1-0.3-0.3s0.1-0.3,0.3-0.3s0.3,0.1,0.3,0.3C83.99,14.3,83.89,14.4,83.69,14.4z M84.59,15.4c-0.1,0-0.2-0.1-0.2-0.1
	s0.1-0.1,0.2-0.1s0.2,0.1,0.2,0.1S84.69,15.4,84.59,15.4z"/>
<path id="d-2" class="st1" d="M73.39,18.1h-1.2v-0.5l0,0c-0.2,0.2-0.5,0.6-1.4,0.6c-1.1,0-1.9-0.8-1.9-2.4s0.9-2.4,2-2.4
	c0.8,0,1.1,0.4,1.2,0.5l0,0v-2.4h1.2L73.39,18.1L73.39,18.1z M71.19,17.2c0.5,0,0.8-0.3,0.9-0.4V15c-0.1-0.1-0.4-0.4-0.9-0.4
	c-0.6,0-1,0.4-1,1.3C70.19,16.8,70.69,17.2,71.19,17.2z"/>
<path id="i-2" class="st1" d="M62.09,13h-1.2v-1.2h1.2V13z M62.09,18.1h-1.2v-4.5h1.2V18.1z"/>
<path id="a" class="st1" d="M52.19,15.4c0.3,0,0.5,0,0.6,0.1v-0.1c0-0.6-0.3-0.9-0.9-0.9s-1.1,0.3-1.3,0.5l-0.4-0.8
	c0.3-0.3,0.9-0.7,1.9-0.7c1.4,0,1.9,0.7,1.9,1.9v2.7h-1.2v-0.5l0,0c-0.1,0.2-0.5,0.6-1.4,0.6s-1.4-0.5-1.4-1.4
	C50.19,15.9,50.99,15.4,52.19,15.4z M51.89,17.3c0.6,0,0.8-0.2,0.9-0.4v-0.6c-0.1,0-0.3,0-0.6,0c-0.6,0-0.9,0.2-0.9,0.5
	C51.39,17.1,51.59,17.3,51.89,17.3z"/>
<path id="k-2" class="st1" d="M41.89,18.1l-1.2-1.9h-0.5v1.9h-1.2v-6.6h1.2v3.7h0.5l1.2-1.7h1.4l-1.6,2.2l1.7,2.4H41.89z"/>
<path id="k-1" class="st1" d="M30.59,18.1l-1.2-1.9h-0.5v1.9h-1.2v-6.6h1.2v3.7h0.5l1.2-1.7h1.4l-1.6,2.2l1.7,2.4H30.59z"/>
<path id="o-2" class="st1" d="M20.39,14.4c-0.2,0-0.4,0.2-0.5,0.4h-0.5c0-0.4-0.2-0.8-0.5-1.1l0.3-0.4c0.2,0.1,0.5,0.1,0.6-0.1
	c0.2-0.2,0.2-0.5,0.1-0.7s-0.5-0.2-0.7-0.1c0,0,0,0-0.1,0.1c-0.2,0.2-0.2,0.4-0.1,0.6l-0.4,0.3c-0.3-0.3-0.7-0.4-1.1-0.5v-0.5
	c0.3-0.1,0.4-0.4,0.4-0.6s-0.4-0.4-0.6-0.4s-0.4,0.4-0.4,0.6c0,0.2,0.2,0.3,0.4,0.4V13c-0.4,0-0.8,0.2-1.1,0.5l-0.4-0.3
	c0.1-0.2,0.1-0.5-0.1-0.6c-0.2-0.2-0.6-0.1-0.7,0.1c-0.1,0.2-0.1,0.4,0,0.6c0.2,0.2,0.4,0.2,0.6,0.1l0.3,0.4
	c-0.3,0.3-0.4,0.7-0.5,1.1h-0.5c-0.1-0.3-0.4-0.4-0.6-0.4s-0.4,0.4-0.4,0.6s0.4,0.4,0.6,0.4c0.2,0,0.3-0.2,0.4-0.4h0.5
	c0,0.4,0.2,0.8,0.5,1.1l-0.3,0.4c-0.2-0.1-0.5-0.1-0.6,0.1c-0.2,0.2-0.2,0.5,0.1,0.7c0.2,0.2,0.5,0.2,0.7,0s0.2-0.4,0.1-0.6l0.4-0.4
	c0.3,0.3,0.7,0.4,1.1,0.5v0.5c-0.3,0.1-0.4,0.4-0.4,0.6c0.1,0.3,0.4,0.4,0.6,0.4c0.3-0.1,0.4-0.4,0.4-0.6s-0.2-0.3-0.4-0.4v-0.5
	c0.4,0,0.8-0.2,1.1-0.5l0.4,0.3c-0.1,0.2-0.1,0.5,0.1,0.6c0.2,0.2,0.5,0.2,0.7-0.1c0.2-0.2,0.2-0.5,0-0.7s-0.4-0.2-0.6-0.1l-0.4-0.4
	c0.3-0.3,0.4-0.7,0.5-1.1h0.5c0.1,0.3,0.4,0.4,0.6,0.4s0.4-0.4,0.4-0.6C20.89,14.6,20.69,14.4,20.39,14.4L20.39,14.4z M15.89,15.2
	c0-0.1,0.1-0.1,0.2-0.1c0.1,0,0.2,0.1,0.2,0.1s-0.1,0.1-0.2,0.1C15.99,15.3,15.89,15.3,15.89,15.2z M16.89,16.2
	c-0.1,0-0.2-0.1-0.2-0.1s0.1-0.1,0.2-0.1s0.2,0.1,0.2,0.1C17.09,16.2,16.99,16.2,16.89,16.2z M16.89,15.5c-0.2,0-0.3-0.1-0.3-0.3
	s0.1-0.3,0.3-0.3s0.3,0.1,0.3,0.3S17.09,15.5,16.89,15.5z M18.09,16.2c-0.1,0-0.2-0.1-0.2-0.1s0.1-0.1,0.2-0.1s0.2,0,0.2,0.1
	S18.19,16.2,18.09,16.2z M18.09,15.5c-0.2,0-0.3-0.1-0.3-0.3s0.1-0.3,0.3-0.3s0.3,0.1,0.3,0.3S18.29,15.5,18.09,15.5z M18.09,14.3
	c-0.2,0-0.3-0.1-0.3-0.3s0.1-0.3,0.3-0.3s0.3,0.1,0.3,0.3S18.29,14.3,18.09,14.3z M18.99,15.3c-0.1,0-0.2-0.1-0.2-0.1
	s0.1-0.1,0.2-0.1s0.2,0.1,0.2,0.1S19.09,15.3,18.99,15.3z"/>
<path id="h" class="st1" d="M7.69,18.1h-1.3v-2.7h-2.8v2.7h-1.3v-6.3h1.3v2.5h2.9v-2.5h1.3v6.3H7.69z"/>
<path id="nine" class="st0" d="M82.89,8.1c-0.8,0-1.2-0.3-1.3-0.4l0.4-0.9c0.1,0.1,0.4,0.4,0.9,0.4c0.6,0,1.1-0.4,1.2-1.1
	c-0.2,0.1-0.6,0.3-1,0.3c-0.9,0-1.4-0.5-1.4-1.6s0.5-1.8,1.6-1.8c1.2,0,1.9,0.7,1.9,2.4C85.19,7.3,84.19,8.1,82.89,8.1z M83.29,5.4
	c0.3,0,0.5-0.1,0.6-0.2c0-0.9-0.3-1.2-0.7-1.2c-0.4,0-0.6,0.2-0.6,0.6C82.69,5.1,82.89,5.4,83.29,5.4z"/>
<path id="one" class="st0" d="M73.59,8h-1.2V4.3l-0.9,0.4l-0.4-0.9l1.5-0.6h0.9L73.59,8L73.59,8z"/>
<path id="_x5F_" class="st0" d="M63.19,6.3h-1.9V5.4h1.9V6.3z"/>
<path id="d-1" class="st0" d="M50.49,8h-1.7V3.1h1.7c1.9,0,3,0.7,3,2.4C53.49,7.1,52.49,8,50.49,8z M50.49,4.2h-0.5v2.7h0.5
	c1.2,0,1.7-0.5,1.7-1.4S51.69,4.2,50.49,4.2z"/>
<path id="i-1" class="st0" d="M40.89,8h-1.2V3.1h1.2V8z"/>
<path id="v" class="st0" d="M29.89,8h-1.3l-1.8-4.9h1.3l1.2,3.5l0,0l1.2-3.5h1.3L29.89,8z"/>
<path id="o-1" class="st0" d="M16.49,8.1c-1.5,0-2.4-0.9-2.4-2.5s1-2.5,2.4-2.5c1.5,0,2.4,0.9,2.4,2.5S17.89,8.1,16.49,8.1z
	 M16.49,4.1c-0.7,0-1.2,0.5-1.2,1.4s0.5,1.5,1.2,1.5c0.7,0,1.2-0.5,1.2-1.4C17.69,4.6,17.29,4.1,16.49,4.1z"/>
<path id="c" class="st0" d="M4.49,3c1,0,1.4,0.4,1.7,0.5l-0.6,1c-0.2-0.2-0.5-0.4-1.1-0.4c-0.8,0-1.4,0.4-1.4,1.4S3.69,7,4.49,7
	c0.6,0,1-0.2,1.2-0.4l0.4,0.9c-0.3,0.2-0.8,0.6-1.8,0.6c-1.4,0-2.4-0.7-2.4-2.5S3.09,3,4.49,3z"/>
</svg>
