<?xml version="1.0" encoding="utf-8"?>
<!-- Generator: Adobe Illustrator 24.1.1, SVG Export Plug-In . SVG Version: 6.00 Build 0)  -->
<svg version="1.1" id="レイヤー_1" xmlns="http://www.w3.org/2000/svg" xmlns:xlink="http://www.w3.org/1999/xlink" x="0px"
	 y="0px" viewBox="0 0 90 30" style="enable-background:new 0 0 90 30;" xml:space="preserve">
<style type="text/css">
	.st0{display:none;}
	.st1{display:inline;fill:#008246;}
	.st2{fill:#424242;}
	.st3{fill:#1C8DF0;}
</style>
<g id="XMLID_68_" class="st0">
	<rect id="XMLID_70_" x="35.4" y="-6" class="st1" width="12" height="41.9"/>
	<rect id="XMLID_69_" x="-3.4" y="-6" class="st1" width="6" height="41.9"/>
</g>
<path class="st2" d="M5.4,3c1,0,1.4,0.4,1.7,0.5l-0.6,1C6.3,4.3,6,4.1,5.4,4.1C4.6,4.1,4,4.5,4,5.5S4.6,7,5.4,7c0.6,0,1-0.2,1.2-0.4
	L7,7.5C6.7,7.7,6.2,8.1,5.2,8.1c-1.4,0-2.4-0.7-2.4-2.5C2.8,3.8,4,3,5.4,3z"/>
<path class="st2" d="M17.4,8.1c-1.5,0-2.4-0.9-2.4-2.5s1-2.5,2.4-2.5c1.5,0,2.4,0.9,2.4,2.5S18.8,8.1,17.4,8.1z M17.4,4.1
	c-0.7,0-1.2,0.5-1.2,1.4S16.7,7,17.4,7s1.2-0.5,1.2-1.4C18.6,4.6,18.2,4.1,17.4,4.1z"/>
<path class="st2" d="M30.8,8h-1.3l-1.8-4.9H29l1.2,3.5l0,0l1.2-3.5h1.3L30.8,8z"/>
<path class="st2" d="M41.8,8h-1.2V3.1h1.2V8z"/>
<path class="st2" d="M51.4,8h-1.7V3.1h1.7c1.9,0,3,0.7,3,2.4C54.4,7.1,53.4,8,51.4,8z M51.4,4.2h-0.5v2.7h0.5c1.2,0,1.7-0.5,1.7-1.4
	C53.1,4.6,52.6,4.2,51.4,4.2z"/>
<path class="st2" d="M64.1,6.3h-1.9V5.4h1.9V6.3z"/>
<path class="st2" d="M74.5,8h-1.2V4.3l-0.9,0.4L72,3.8l1.5-0.6h0.9V8H74.5z"/>
<path class="st2" d="M83.8,8.1c-0.8,0-1.2-0.3-1.3-0.4l0.4-0.9c0.1,0.1,0.4,0.4,0.9,0.4c0.6,0,1.1-0.4,1.2-1.1
	c-0.2,0.1-0.6,0.3-1,0.3c-0.9,0-1.4-0.5-1.4-1.6S83.1,3,84.2,3c1.2,0,1.9,0.7,1.9,2.4C86.1,7.3,85.1,8.1,83.8,8.1z M84.2,5.4
	c0.3,0,0.5-0.1,0.6-0.2c0-0.9-0.3-1.2-0.7-1.2c-0.4,0-0.6,0.2-0.6,0.6C83.6,5.1,83.8,5.4,84.2,5.4z"/>
<path class="st3" d="M8.6,18.1H7.3v-2.7H4.5v2.7H3.2v-6.3h1.3v2.5h2.9v-2.5h1.3v6.3H8.6z"/>
<path class="st3" d="M31.5,18.1l-1.2-1.9h-0.5v1.9h-1.2v-6.6h1.2v3.7h0.5l1.2-1.7h1.4l-1.6,2.2l1.7,2.4H31.5z"/>
<path class="st3" d="M42.8,18.1l-1.2-1.9h-0.5v1.9h-1.2v-6.6h1.2v3.7h0.5l1.2-1.7h1.4l-1.6,2.2l1.7,2.4H42.8z"/>
<path class="st3" d="M53.1,15.4c0.3,0,0.5,0,0.6,0.1v-0.1c0-0.6-0.3-0.9-0.9-0.9c-0.6,0-1.1,0.3-1.3,0.5l-0.4-0.8
	c0.3-0.3,0.9-0.7,1.9-0.7c1.4,0,1.9,0.7,1.9,1.9v2.7h-1.2v-0.5l0,0c-0.1,0.2-0.5,0.6-1.4,0.6s-1.4-0.5-1.4-1.4
	C51.1,15.9,51.9,15.4,53.1,15.4z M52.8,17.3c0.6,0,0.8-0.2,0.9-0.4v-0.6c-0.1,0-0.3,0-0.6,0c-0.6,0-0.9,0.2-0.9,0.5
	C52.3,17.1,52.5,17.3,52.8,17.3z"/>
<path class="st3" d="M63,13h-1.2v-1.2H63V13z M63,18.1h-1.2v-4.5H63V18.1z"/>
<path class="st3" d="M74.3,18.1h-1.2v-0.5l0,0c-0.2,0.2-0.5,0.6-1.4,0.6c-1.1,0-1.9-0.8-1.9-2.4s0.9-2.4,2-2.4
	c0.8,0,1.1,0.4,1.2,0.5l0,0v-2.4h1.2L74.3,18.1L74.3,18.1z M72.1,17.2c0.5,0,0.8-0.3,0.9-0.4V15c-0.1-0.1-0.4-0.4-0.9-0.4
	c-0.6,0-1,0.4-1,1.3C71.1,16.8,71.6,17.2,72.1,17.2z"/>
<path class="st3" d="M21.334,14.438c-0.235,0.002-0.439,0.162-0.497,0.389h-0.503c-0.028-0.422-0.195-0.823-0.473-1.141l0.344-0.356
	c0.202,0.121,0.46,0.089,0.626-0.078c0.217-0.187,0.241-0.514,0.054-0.731c-0.187-0.217-0.514-0.241-0.731-0.054
	c-0.019,0.017-0.037,0.035-0.054,0.054c-0.169,0.171-0.196,0.436-0.066,0.638l-0.356,0.344c-0.318-0.278-0.719-0.445-1.141-0.473
	v-0.503c0.277-0.071,0.444-0.353,0.373-0.63c-0.071-0.277-0.353-0.444-0.63-0.373s-0.444,0.353-0.373,0.63
	c0.047,0.183,0.19,0.326,0.373,0.373v0.503c-0.422,0.028-0.823,0.195-1.141,0.473l-0.356-0.344c0.121-0.202,0.089-0.46-0.078-0.626
	c-0.228-0.172-0.553-0.127-0.725,0.102c-0.137,0.182-0.139,0.433-0.005,0.617c0.168,0.173,0.433,0.205,0.638,0.078l0.344,0.356
	c-0.278,0.318-0.445,0.719-0.473,1.141h-0.503c-0.071-0.277-0.353-0.444-0.63-0.373c-0.277,0.071-0.444,0.353-0.373,0.63
	c0.071,0.277,0.353,0.444,0.63,0.373c0.183-0.047,0.326-0.19,0.373-0.373h0.503c0.028,0.422,0.195,0.823,0.473,1.141l-0.344,0.356
	c-0.202-0.121-0.46-0.089-0.626,0.078c-0.187,0.217-0.163,0.544,0.054,0.731c0.194,0.168,0.482,0.168,0.677,0
	c0.169-0.171,0.196-0.436,0.066-0.638l0.356-0.356c0.318,0.278,0.719,0.445,1.141,0.473v0.503c-0.277,0.071-0.444,0.353-0.373,0.63
	c0.071,0.277,0.353,0.444,0.63,0.373c0.277-0.071,0.444-0.353,0.373-0.63c-0.047-0.183-0.19-0.326-0.373-0.373v-0.491
	c0.422-0.028,0.823-0.195,1.141-0.473l0.356,0.344c-0.121,0.202-0.089,0.46,0.078,0.626c0.217,0.187,0.544,0.163,0.731-0.054
	c0.168-0.194,0.168-0.482,0-0.677c-0.171-0.169-0.436-0.196-0.638-0.066l-0.356-0.356c0.278-0.318,0.445-0.719,0.473-1.141h0.503
	c0.073,0.275,0.355,0.439,0.63,0.366c0.275-0.073,0.439-0.355,0.366-0.63c-0.06-0.226-0.265-0.384-0.499-0.383H21.334z
	 M16.763,15.181c0-0.083,0.067-0.15,0.15-0.15s0.15,0.067,0.15,0.15s-0.067,0.15-0.15,0.15S16.763,15.263,16.763,15.181z
	 M17.811,16.228c-0.083,0-0.15-0.067-0.15-0.15c0-0.083,0.067-0.15,0.15-0.15s0.15,0.067,0.15,0.15
	C17.96,16.161,17.893,16.228,17.811,16.228z M17.811,15.48c-0.165,0-0.299-0.134-0.299-0.299c0-0.165,0.134-0.299,0.299-0.299
	s0.299,0.134,0.299,0.299C18.11,15.346,17.976,15.48,17.811,15.48z M19.008,16.228c-0.083,0-0.15-0.067-0.15-0.15
	c0-0.083,0.067-0.15,0.15-0.15s0.15,0.067,0.15,0.15C19.158,16.161,19.091,16.228,19.008,16.228z M19.008,15.48
	c-0.165,0-0.299-0.134-0.299-0.299c0-0.165,0.134-0.299,0.299-0.299s0.299,0.134,0.299,0.299
	C19.308,15.346,19.174,15.48,19.008,15.48z M19.008,14.282c-0.165,0-0.299-0.134-0.299-0.299c0-0.165,0.134-0.299,0.299-0.299
	s0.299,0.134,0.299,0.299C19.308,14.148,19.174,14.282,19.008,14.282z M19.906,15.33c-0.083,0-0.15-0.067-0.15-0.15
	s0.067-0.15,0.15-0.15s0.15,0.067,0.15,0.15S19.989,15.33,19.906,15.33z"/>
<path class="st3" d="M86.947,14.558c-0.235,0.002-0.439,0.162-0.497,0.389h-0.503c-0.028-0.422-0.195-0.823-0.473-1.141l0.344-0.356
	c0.202,0.121,0.46,0.089,0.626-0.078c0.217-0.187,0.241-0.514,0.054-0.731s-0.514-0.241-0.731-0.054
	c-0.019,0.017-0.037,0.035-0.054,0.054c-0.169,0.171-0.196,0.436-0.066,0.638l-0.356,0.344c-0.318-0.278-0.719-0.445-1.141-0.473
	v-0.503c0.277-0.071,0.444-0.353,0.373-0.63c-0.071-0.277-0.353-0.444-0.63-0.373c-0.277,0.071-0.444,0.353-0.373,0.63
	c0.047,0.183,0.19,0.326,0.373,0.373v0.503c-0.422,0.028-0.823,0.195-1.141,0.473l-0.356-0.344c0.121-0.202,0.089-0.46-0.078-0.626
	c-0.228-0.172-0.553-0.127-0.725,0.102c-0.137,0.182-0.139,0.433-0.005,0.617c0.168,0.173,0.433,0.205,0.638,0.078l0.344,0.356
	c-0.278,0.318-0.445,0.719-0.473,1.141h-0.503c-0.071-0.277-0.353-0.444-0.63-0.373c-0.277,0.071-0.444,0.353-0.373,0.63
	c0.071,0.277,0.353,0.444,0.63,0.373c0.183-0.047,0.326-0.19,0.373-0.373h0.503c0.028,0.422,0.195,0.823,0.473,1.141l-0.344,0.356
	c-0.202-0.121-0.46-0.089-0.626,0.078c-0.187,0.217-0.163,0.544,0.054,0.731c0.194,0.168,0.482,0.168,0.677,0
	c0.169-0.171,0.196-0.436,0.066-0.638l0.356-0.356c0.318,0.278,0.719,0.445,1.141,0.473v0.503c-0.277,0.071-0.444,0.353-0.373,0.63
	c0.071,0.277,0.353,0.444,0.63,0.373c0.277-0.071,0.444-0.353,0.373-0.63c-0.047-0.183-0.19-0.326-0.373-0.373v-0.491
	c0.422-0.028,0.823-0.195,1.141-0.473l0.356,0.344c-0.121,0.202-0.089,0.46,0.078,0.626c0.217,0.187,0.544,0.163,0.731-0.054
	c0.168-0.194,0.168-0.482,0-0.677c-0.171-0.169-0.436-0.196-0.638-0.066l-0.356-0.356c0.278-0.318,0.445-0.719,0.473-1.141h0.503
	c0.073,0.275,0.355,0.439,0.63,0.366c0.275-0.073,0.439-0.355,0.366-0.63c-0.06-0.226-0.265-0.384-0.499-0.383H86.947z M82.376,15.3
	c0-0.083,0.067-0.15,0.15-0.15c0.083,0,0.15,0.067,0.15,0.15s-0.067,0.15-0.15,0.15C82.443,15.45,82.376,15.383,82.376,15.3z
	 M83.423,16.348c-0.083,0-0.15-0.067-0.15-0.15s0.067-0.15,0.15-0.15s0.15,0.067,0.15,0.15S83.506,16.348,83.423,16.348z
	 M83.423,15.6c-0.165,0-0.299-0.134-0.299-0.299s0.134-0.299,0.299-0.299c0.165,0,0.299,0.134,0.299,0.299S83.589,15.6,83.423,15.6z
	 M84.621,16.348c-0.083,0-0.15-0.067-0.15-0.15s0.067-0.15,0.15-0.15s0.15,0.067,0.15,0.15S84.704,16.348,84.621,16.348z
	 M84.621,15.6c-0.165,0-0.299-0.134-0.299-0.299s0.134-0.299,0.299-0.299c0.165,0,0.299,0.134,0.299,0.299S84.786,15.6,84.621,15.6z
	 M84.621,14.402c-0.165,0-0.299-0.134-0.299-0.299c0-0.165,0.134-0.299,0.299-0.299c0.165,0,0.299,0.134,0.299,0.299
	C84.92,14.268,84.786,14.402,84.621,14.402z M85.519,15.45c-0.083,0-0.15-0.067-0.15-0.15s0.067-0.15,0.15-0.15
	s0.15,0.067,0.15,0.15S85.602,15.45,85.519,15.45z"/>
<g>
	<path class="st2" d="M5.827,25.843c-0.421,1.24-0.895,1.859-1.418,1.859c-0.374,0-0.694-0.262-0.96-0.785
		c-0.205-0.406-0.346-0.853-0.424-1.34c-0.093-0.593-0.14-1.354-0.14-2.283c0-0.404,0.015-0.837,0.044-1.299l0.803,0.061
		c-0.03,0.463-0.044,0.902-0.044,1.32c0,1.463,0.137,2.482,0.41,3.059c0.112,0.237,0.216,0.355,0.314,0.355
		c0.064,0,0.144-0.073,0.239-0.219c0.196-0.296,0.385-0.704,0.567-1.224L5.827,25.843z M7.99,26.657
		c-0.116-0.962-0.259-1.739-0.427-2.332c-0.205-0.717-0.443-1.375-0.714-1.972l0.728-0.178c0.376,0.745,0.655,1.463,0.837,2.153
		c0.15,0.561,0.274,1.273,0.373,2.14L7.99,26.657z"/>
	<path class="st2" d="M21.235,21.54h0.755v0.861h2.15v0.649h-2.15v0.813h2.03v0.643h-2.03v1.057
		c0.811,0.273,1.611,0.685,2.399,1.233l-0.403,0.649c-0.597-0.446-1.262-0.841-1.996-1.183c-0.018,0.39-0.093,0.691-0.226,0.905
		c-0.23,0.372-0.684,0.558-1.36,0.558c-0.522,0-0.941-0.098-1.258-0.294c-0.353-0.219-0.53-0.515-0.53-0.889
		c0-0.446,0.238-0.777,0.714-0.991c0.319-0.142,0.734-0.212,1.244-0.212c0.201,0,0.42,0.016,0.66,0.048v-0.882h-2.423v-0.643h2.423
		v-0.813h-2.57v-0.649h2.57V21.54z M21.235,26.024c-0.271-0.057-0.531-0.086-0.779-0.086c-0.303,0-0.549,0.045-0.738,0.134
		c-0.226,0.107-0.338,0.26-0.338,0.458c0,0.166,0.088,0.301,0.263,0.403c0.178,0.104,0.415,0.157,0.711,0.157
		c0.351,0,0.592-0.094,0.725-0.28c0.105-0.146,0.157-0.363,0.157-0.653V26.024z"/>
	<path class="st2" d="M34.295,27.706c-0.08-0.752-0.12-1.543-0.12-2.372c0-1.294,0.086-2.528,0.26-3.702l0.752,0.109
		c-0.171,1.012-0.256,2.105-0.256,3.281c0,0.864,0.043,1.72,0.13,2.567L34.295,27.706z M38.007,21.632h0.749v1.238h1.395v0.68
		h-1.395v2.099c0.54,0.248,1.074,0.597,1.603,1.046l-0.383,0.677c-0.447-0.39-0.855-0.699-1.227-0.93
		c-0.041,0.559-0.239,0.932-0.595,1.121c-0.198,0.104-0.469,0.157-0.813,0.157c-0.374,0-0.698-0.067-0.974-0.201
		c-0.417-0.203-0.625-0.541-0.625-1.012c0-0.372,0.158-0.667,0.475-0.886c0.29-0.2,0.661-0.301,1.114-0.301
		c0.208,0,0.433,0.026,0.677,0.079v-1.85h-2.198v-0.68h2.198V21.632z M38.007,26.062c-0.267-0.084-0.503-0.126-0.711-0.126
		c-0.198,0-0.367,0.03-0.506,0.093c-0.219,0.093-0.328,0.246-0.328,0.457c0,0.174,0.08,0.31,0.239,0.407
		c0.155,0.096,0.362,0.144,0.622,0.144c0.456,0,0.684-0.256,0.684-0.77V26.062z"/>
	<path class="st2" d="M51.566,21.933h1.404v0.568h-3.527v-0.568h1.429V21.38h0.694V21.933z M51.576,26.373l-0.018-0.044
		c-0.065-0.158-0.123-0.277-0.17-0.359l0.42-0.201c0.205,0.353,0.355,0.722,0.451,1.107l-0.444,0.273
		c-0.019-0.104-0.048-0.209-0.089-0.318c-0.316,0.084-0.772,0.162-1.367,0.232l-0.119-0.574c0.061-0.002,0.135-0.006,0.222-0.01
		l0.085-0.008c0.071-0.31,0.128-0.586,0.172-0.83h-0.533v2.389h-0.65v-2.929h1.275c0.016-0.101,0.037-0.245,0.064-0.435h-1.179
		v-1.965h0.636v1.463h1.791v-1.463h0.622v1.24c0.355-0.727,0.632-1.594,0.831-2.601l0.684,0.157
		c-0.112,0.439-0.219,0.803-0.322,1.09h0.571c0.128-0.373,0.235-0.766,0.325-1.176l0.693,0.127
		c-0.116,0.371-0.245,0.721-0.387,1.049h0.94v0.623H55.08v0.848h0.854v0.588H55.08v0.84h0.854v0.582H55.08v0.905h1.083v0.629H53.91
		v0.427h-0.648v-3.842c-0.076,0.169-0.164,0.342-0.268,0.52l-0.249-0.461v0.42h-1.217c-0.017,0.119-0.042,0.264-0.079,0.435h1.474
		v2.368c0,0.203-0.048,0.341-0.144,0.414c-0.082,0.062-0.22,0.092-0.414,0.092c-0.191,0-0.443-0.017-0.758-0.051l-0.113-0.595
		c0.28,0.041,0.498,0.062,0.652,0.062c0.068,0,0.111-0.015,0.127-0.045c0.014-0.022,0.021-0.061,0.021-0.115v-1.59h-1.012
		c-0.038,0.198-0.11,0.461-0.216,0.789C51.203,26.42,51.373,26.4,51.576,26.373z M50.872,23.341
		c-0.183-0.129-0.341-0.235-0.476-0.317l0.322-0.369c0.229,0.148,0.394,0.259,0.492,0.331c0.104-0.12,0.215-0.264,0.331-0.43
		l0.485,0.252c-0.139,0.181-0.274,0.344-0.406,0.489c0.159,0.125,0.311,0.252,0.454,0.38l-0.335,0.402
		c-0.162-0.152-0.318-0.293-0.472-0.424c-0.146,0.142-0.327,0.303-0.544,0.482l-0.358-0.379
		C50.558,23.622,50.727,23.482,50.872,23.341z M54.492,23.212H53.91v0.848h0.582V23.212z M54.492,24.647H53.91v0.84h0.582V24.647z
		 M54.492,26.069H53.91v0.905h0.582V26.069z"/>
	<path class="st2" d="M66.622,21.533h0.755v1.931c0.543-0.563,0.977-0.948,1.303-1.158c0.303-0.196,0.617-0.294,0.943-0.294
		c0.328,0,0.592,0.093,0.793,0.276c0.264,0.246,0.396,0.569,0.396,0.968c0,0.104-0.014,0.244-0.041,0.417
		c-0.201,1.273-0.301,2.155-0.301,2.646c0,0.21,0.054,0.314,0.16,0.314c0.068,0,0.158-0.039,0.271-0.116
		c0.235-0.162,0.472-0.428,0.711-0.797l0.28,0.783c-0.146,0.232-0.327,0.438-0.543,0.619c-0.251,0.209-0.52,0.314-0.804,0.314
		c-0.271,0-0.481-0.095-0.632-0.284c-0.128-0.162-0.191-0.432-0.191-0.81c0-0.287,0.037-0.72,0.112-1.296
		c0.096-0.725,0.159-1.263,0.191-1.613c0.005-0.057,0.007-0.104,0.007-0.144c0-0.2-0.042-0.354-0.127-0.461
		c-0.079-0.104-0.189-0.154-0.331-0.154c-0.476,0-1.209,0.635-2.198,1.904v3.227h-0.755V25.44c-0.38,0.533-0.731,1.036-1.053,1.51
		l-0.355-0.81c0.54-0.654,1.009-1.277,1.408-1.87v-0.867h-1.2v-0.688h1.2V21.533z"/>
	<path class="st2" d="M81.169,22.21c2.097-0.032,4.077-0.086,5.944-0.16l0.041,0.68c-0.823,0.041-1.463,0.166-1.922,0.376
		c-0.438,0.2-0.788,0.479-1.053,0.834c-0.301,0.403-0.451,0.853-0.451,1.347c0,0.492,0.172,0.861,0.514,1.107
		c0.392,0.28,0.993,0.473,1.805,0.578l-0.161,0.769c-1.058-0.142-1.802-0.415-2.231-0.82c-0.463-0.433-0.694-0.971-0.694-1.613
		c0-0.583,0.21-1.128,0.629-1.634c0.306-0.371,0.724-0.67,1.255-0.896c-0.941,0.032-2.154,0.085-3.641,0.161L81.169,22.21z"/>
</g>
</svg>
